# xmcd
#
# Track frame offsets:
#	150
#	11845
#	21011
#	34632
#	51814
#	67833
#	81818
#	93762
#	110402
#	120723
#
# Disc length: 1927 seconds
#
# Revision: 1
# Processed by: cddbd v1.5.2PL0 Copyright (c) Steve Scherf et al.
# Submitted via: EZCDAudioConverter 1.3.3.1
#
DISCID=7007850a
DTITLE=Ike and Tina Turner - Shake A Tail Feather
DYEAR=2004
DGENRE=R&B
TTITLE0=Cussin', Cryin', and Caryin' On
TTITLE1=Ain't Nobody's Business
TTITLE2=You Got Me Runnin'
TTITLE3=I've Been Loving You Too Long
TTITLE4=Shake A Hand
TTITLE5=It Sho' Ain't Me
TTITLE6=Sugar Sugar
TTITLE7=You Should've Treated Me Right
TTITLE8=Shake A Tail Feather
TTITLE9=A Fool For You
EXTD=
EXTT0=
EXTT1=
EXTT2=
EXTT3=
EXTT4=
EXTT5=
EXTT6=
EXTT7=
EXTT8=
EXTT9=
PLAYORDER=
